<mxfile host="app.diagrams.net" agent="Mozilla/5.0 (Windows NT 10.0; Win64; x64) AppleWebKit/537.36 (KHTML, like Gecko) Chrome/129.0.0.0 Safari/537.36" version="24.7.16">
  <diagram id="C5RBs43oDa-KdzZeNtuy" name="Page-1">
    <mxGraphModel dx="2514" dy="878" grid="1" gridSize="10" guides="1" tooltips="1" connect="1" arrows="1" fold="1" page="1" pageScale="1" pageWidth="827" pageHeight="1169" math="0" shadow="0">
      <root>
        <mxCell id="WIyWlLk6GJQsqaUBKTNV-0" />
        <mxCell id="WIyWlLk6GJQsqaUBKTNV-1" parent="WIyWlLk6GJQsqaUBKTNV-0" />
        <mxCell id="Ejqd8a6HH2QFeDG4-jgv-2" style="edgeStyle=orthogonalEdgeStyle;rounded=0;orthogonalLoop=1;jettySize=auto;html=1;exitX=1;exitY=0.5;exitDx=0;exitDy=0;entryX=0.5;entryY=0;entryDx=0;entryDy=0;" parent="WIyWlLk6GJQsqaUBKTNV-1" source="WIyWlLk6GJQsqaUBKTNV-3" target="Ejqd8a6HH2QFeDG4-jgv-1" edge="1">
          <mxGeometry relative="1" as="geometry" />
        </mxCell>
        <mxCell id="Ejqd8a6HH2QFeDG4-jgv-20" style="edgeStyle=orthogonalEdgeStyle;rounded=0;orthogonalLoop=1;jettySize=auto;html=1;exitX=0;exitY=0.5;exitDx=0;exitDy=0;" parent="WIyWlLk6GJQsqaUBKTNV-1" source="WIyWlLk6GJQsqaUBKTNV-3" edge="1">
          <mxGeometry relative="1" as="geometry">
            <mxPoint x="700" y="362" as="targetPoint" />
          </mxGeometry>
        </mxCell>
        <mxCell id="WIyWlLk6GJQsqaUBKTNV-3" value="Login" style="rounded=1;whiteSpace=wrap;html=1;fontSize=12;glass=0;strokeWidth=1;shadow=0;" parent="WIyWlLk6GJQsqaUBKTNV-1" vertex="1">
          <mxGeometry x="834" y="272" width="120" height="40" as="geometry" />
        </mxCell>
        <mxCell id="Ejqd8a6HH2QFeDG4-jgv-0" value="Seller" style="text;html=1;align=center;verticalAlign=middle;resizable=0;points=[];autosize=1;strokeColor=none;fillColor=none;" parent="WIyWlLk6GJQsqaUBKTNV-1" vertex="1">
          <mxGeometry x="725" y="260" width="50" height="30" as="geometry" />
        </mxCell>
        <mxCell id="Ejqd8a6HH2QFeDG4-jgv-47" style="edgeStyle=orthogonalEdgeStyle;rounded=0;orthogonalLoop=1;jettySize=auto;html=1;exitX=0.5;exitY=1;exitDx=0;exitDy=0;entryX=1;entryY=0.5;entryDx=0;entryDy=0;" parent="WIyWlLk6GJQsqaUBKTNV-1" source="Ejqd8a6HH2QFeDG4-jgv-1" target="Ejqd8a6HH2QFeDG4-jgv-39" edge="1">
          <mxGeometry relative="1" as="geometry" />
        </mxCell>
        <mxCell id="Ejqd8a6HH2QFeDG4-jgv-1" value="Open Featured Products Page" style="rhombus;whiteSpace=wrap;html=1;shadow=0;fontFamily=Helvetica;fontSize=12;align=center;strokeWidth=1;spacing=6;spacingTop=-4;" parent="WIyWlLk6GJQsqaUBKTNV-1" vertex="1">
          <mxGeometry x="1030" y="362" width="100" height="80" as="geometry" />
        </mxCell>
        <mxCell id="Ejqd8a6HH2QFeDG4-jgv-4" value="Buyer" style="text;html=1;align=center;verticalAlign=middle;resizable=0;points=[];autosize=1;strokeColor=none;fillColor=none;" parent="WIyWlLk6GJQsqaUBKTNV-1" vertex="1">
          <mxGeometry x="1010" y="258" width="50" height="30" as="geometry" />
        </mxCell>
        <mxCell id="Ejqd8a6HH2QFeDG4-jgv-6" style="edgeStyle=orthogonalEdgeStyle;rounded=0;orthogonalLoop=1;jettySize=auto;html=1;exitX=1;exitY=0.5;exitDx=0;exitDy=0;" parent="WIyWlLk6GJQsqaUBKTNV-1" source="Ejqd8a6HH2QFeDG4-jgv-5" target="WIyWlLk6GJQsqaUBKTNV-3" edge="1">
          <mxGeometry relative="1" as="geometry" />
        </mxCell>
        <mxCell id="Ejqd8a6HH2QFeDG4-jgv-8" style="edgeStyle=orthogonalEdgeStyle;rounded=0;orthogonalLoop=1;jettySize=auto;html=1;exitX=0;exitY=0.5;exitDx=0;exitDy=0;" parent="WIyWlLk6GJQsqaUBKTNV-1" source="Ejqd8a6HH2QFeDG4-jgv-5" target="Ejqd8a6HH2QFeDG4-jgv-7" edge="1">
          <mxGeometry relative="1" as="geometry" />
        </mxCell>
        <mxCell id="E9m1sffLnyDPW0dIYpkh-9" style="edgeStyle=orthogonalEdgeStyle;rounded=0;orthogonalLoop=1;jettySize=auto;html=1;exitX=0;exitY=0.5;exitDx=0;exitDy=0;" parent="WIyWlLk6GJQsqaUBKTNV-1" source="Ejqd8a6HH2QFeDG4-jgv-5" target="Ejqd8a6HH2QFeDG4-jgv-15" edge="1">
          <mxGeometry relative="1" as="geometry" />
        </mxCell>
        <mxCell id="Ejqd8a6HH2QFeDG4-jgv-5" value="Homepage" style="rounded=1;whiteSpace=wrap;html=1;fontSize=12;glass=0;strokeWidth=1;shadow=0;" parent="WIyWlLk6GJQsqaUBKTNV-1" vertex="1">
          <mxGeometry x="500" y="120" width="120" height="40" as="geometry" />
        </mxCell>
        <mxCell id="Ejqd8a6HH2QFeDG4-jgv-11" style="edgeStyle=orthogonalEdgeStyle;rounded=0;orthogonalLoop=1;jettySize=auto;html=1;exitX=1;exitY=0.5;exitDx=0;exitDy=0;" parent="WIyWlLk6GJQsqaUBKTNV-1" source="Ejqd8a6HH2QFeDG4-jgv-7" edge="1">
          <mxGeometry relative="1" as="geometry">
            <mxPoint x="570" y="362" as="targetPoint" />
          </mxGeometry>
        </mxCell>
        <mxCell id="Ejqd8a6HH2QFeDG4-jgv-12" style="edgeStyle=orthogonalEdgeStyle;rounded=0;orthogonalLoop=1;jettySize=auto;html=1;exitX=0;exitY=0.5;exitDx=0;exitDy=0;" parent="WIyWlLk6GJQsqaUBKTNV-1" source="Ejqd8a6HH2QFeDG4-jgv-7" edge="1">
          <mxGeometry relative="1" as="geometry">
            <mxPoint x="170" y="362" as="targetPoint" />
          </mxGeometry>
        </mxCell>
        <mxCell id="Ejqd8a6HH2QFeDG4-jgv-7" value="Register a new user" style="rounded=1;whiteSpace=wrap;html=1;fontSize=12;glass=0;strokeWidth=1;shadow=0;" parent="WIyWlLk6GJQsqaUBKTNV-1" vertex="1">
          <mxGeometry x="300" y="272" width="120" height="40" as="geometry" />
        </mxCell>
        <mxCell id="Ejqd8a6HH2QFeDG4-jgv-13" value="Seller" style="text;html=1;align=center;verticalAlign=middle;resizable=0;points=[];autosize=1;strokeColor=none;fillColor=none;" parent="WIyWlLk6GJQsqaUBKTNV-1" vertex="1">
          <mxGeometry x="205" y="258" width="50" height="30" as="geometry" />
        </mxCell>
        <mxCell id="Ejqd8a6HH2QFeDG4-jgv-14" value="Buyer" style="text;html=1;align=center;verticalAlign=middle;resizable=0;points=[];autosize=1;strokeColor=none;fillColor=none;" parent="WIyWlLk6GJQsqaUBKTNV-1" vertex="1">
          <mxGeometry x="460" y="260" width="50" height="30" as="geometry" />
        </mxCell>
        <mxCell id="Ejqd8a6HH2QFeDG4-jgv-25" style="edgeStyle=orthogonalEdgeStyle;rounded=0;orthogonalLoop=1;jettySize=auto;html=1;exitX=0.5;exitY=1;exitDx=0;exitDy=0;entryX=0.5;entryY=0;entryDx=0;entryDy=0;" parent="WIyWlLk6GJQsqaUBKTNV-1" source="Ejqd8a6HH2QFeDG4-jgv-15" target="Ejqd8a6HH2QFeDG4-jgv-23" edge="1">
          <mxGeometry relative="1" as="geometry" />
        </mxCell>
        <mxCell id="Ejqd8a6HH2QFeDG4-jgv-15" value="Continue as guest" style="rounded=1;whiteSpace=wrap;html=1;fontSize=12;glass=0;strokeWidth=1;shadow=0;" parent="WIyWlLk6GJQsqaUBKTNV-1" vertex="1">
          <mxGeometry x="-60" y="280" width="120" height="40" as="geometry" />
        </mxCell>
        <mxCell id="Ejqd8a6HH2QFeDG4-jgv-54" style="edgeStyle=orthogonalEdgeStyle;shape=link;rounded=0;orthogonalLoop=1;jettySize=auto;html=1;exitX=0.5;exitY=1;exitDx=0;exitDy=0;" parent="WIyWlLk6GJQsqaUBKTNV-1" source="Ejqd8a6HH2QFeDG4-jgv-19" edge="1">
          <mxGeometry relative="1" as="geometry">
            <mxPoint x="1080" y="530" as="targetPoint" />
          </mxGeometry>
        </mxCell>
        <mxCell id="Ejqd8a6HH2QFeDG4-jgv-19" value="Open Featured Products Page" style="rhombus;whiteSpace=wrap;html=1;shadow=0;fontFamily=Helvetica;fontSize=12;align=center;strokeWidth=1;spacing=6;spacingTop=-4;" parent="WIyWlLk6GJQsqaUBKTNV-1" vertex="1">
          <mxGeometry x="520" y="362" width="100" height="80" as="geometry" />
        </mxCell>
        <mxCell id="Ejqd8a6HH2QFeDG4-jgv-55" style="edgeStyle=orthogonalEdgeStyle;shape=link;rounded=0;orthogonalLoop=1;jettySize=auto;html=1;exitX=0.5;exitY=1;exitDx=0;exitDy=0;" parent="WIyWlLk6GJQsqaUBKTNV-1" source="Ejqd8a6HH2QFeDG4-jgv-21" edge="1">
          <mxGeometry relative="1" as="geometry">
            <mxPoint x="170" y="560" as="targetPoint" />
          </mxGeometry>
        </mxCell>
        <mxCell id="Ejqd8a6HH2QFeDG4-jgv-21" value="Open Featured Products Page" style="rhombus;whiteSpace=wrap;html=1;shadow=0;fontFamily=Helvetica;fontSize=12;align=center;strokeWidth=1;spacing=6;spacingTop=-4;" parent="WIyWlLk6GJQsqaUBKTNV-1" vertex="1">
          <mxGeometry x="650" y="362" width="100" height="80" as="geometry" />
        </mxCell>
        <mxCell id="Ejqd8a6HH2QFeDG4-jgv-48" style="edgeStyle=orthogonalEdgeStyle;rounded=0;orthogonalLoop=1;jettySize=auto;html=1;exitX=0.5;exitY=1;exitDx=0;exitDy=0;entryX=0;entryY=0.5;entryDx=0;entryDy=0;" parent="WIyWlLk6GJQsqaUBKTNV-1" source="Ejqd8a6HH2QFeDG4-jgv-22" target="Ejqd8a6HH2QFeDG4-jgv-39" edge="1">
          <mxGeometry relative="1" as="geometry" />
        </mxCell>
        <mxCell id="Ejqd8a6HH2QFeDG4-jgv-22" value="Open Featured Products Page" style="rhombus;whiteSpace=wrap;html=1;shadow=0;fontFamily=Helvetica;fontSize=12;align=center;strokeWidth=1;spacing=6;spacingTop=-4;" parent="WIyWlLk6GJQsqaUBKTNV-1" vertex="1">
          <mxGeometry x="120" y="362" width="100" height="80" as="geometry" />
        </mxCell>
        <mxCell id="Ejqd8a6HH2QFeDG4-jgv-34" style="edgeStyle=orthogonalEdgeStyle;rounded=0;orthogonalLoop=1;jettySize=auto;html=1;exitX=0.5;exitY=1;exitDx=0;exitDy=0;" parent="WIyWlLk6GJQsqaUBKTNV-1" source="Ejqd8a6HH2QFeDG4-jgv-23" target="Ejqd8a6HH2QFeDG4-jgv-33" edge="1">
          <mxGeometry relative="1" as="geometry" />
        </mxCell>
        <mxCell id="Ejqd8a6HH2QFeDG4-jgv-23" value="Open Featured Products Page" style="rhombus;whiteSpace=wrap;html=1;shadow=0;fontFamily=Helvetica;fontSize=12;align=center;strokeWidth=1;spacing=6;spacingTop=-4;" parent="WIyWlLk6GJQsqaUBKTNV-1" vertex="1">
          <mxGeometry x="-50" y="370" width="100" height="80" as="geometry" />
        </mxCell>
        <mxCell id="Ejqd8a6HH2QFeDG4-jgv-44" style="edgeStyle=orthogonalEdgeStyle;rounded=0;orthogonalLoop=1;jettySize=auto;html=1;exitX=0.5;exitY=1;exitDx=0;exitDy=0;entryX=0;entryY=0.5;entryDx=0;entryDy=0;" parent="WIyWlLk6GJQsqaUBKTNV-1" source="Ejqd8a6HH2QFeDG4-jgv-33" target="Ejqd8a6HH2QFeDG4-jgv-43" edge="1">
          <mxGeometry relative="1" as="geometry" />
        </mxCell>
        <mxCell id="Ejqd8a6HH2QFeDG4-jgv-33" value="View products" style="ellipse;whiteSpace=wrap;html=1;" parent="WIyWlLk6GJQsqaUBKTNV-1" vertex="1">
          <mxGeometry x="-60" y="800" width="120" height="80" as="geometry" />
        </mxCell>
        <mxCell id="Ejqd8a6HH2QFeDG4-jgv-46" style="edgeStyle=orthogonalEdgeStyle;rounded=0;orthogonalLoop=1;jettySize=auto;html=1;exitX=0.5;exitY=1;exitDx=0;exitDy=0;entryX=0.5;entryY=0;entryDx=0;entryDy=0;" parent="WIyWlLk6GJQsqaUBKTNV-1" source="Ejqd8a6HH2QFeDG4-jgv-39" target="Ejqd8a6HH2QFeDG4-jgv-43" edge="1">
          <mxGeometry relative="1" as="geometry" />
        </mxCell>
        <mxCell id="Ejqd8a6HH2QFeDG4-jgv-39" value="Logout" style="ellipse;whiteSpace=wrap;html=1;" parent="WIyWlLk6GJQsqaUBKTNV-1" vertex="1">
          <mxGeometry x="540" y="1610" width="120" height="80" as="geometry" />
        </mxCell>
        <mxCell id="Ejqd8a6HH2QFeDG4-jgv-42" style="edgeStyle=orthogonalEdgeStyle;rounded=0;orthogonalLoop=1;jettySize=auto;html=1;exitX=0.5;exitY=1;exitDx=0;exitDy=0;entryX=0.5;entryY=0;entryDx=0;entryDy=0;" parent="WIyWlLk6GJQsqaUBKTNV-1" source="Ejqd8a6HH2QFeDG4-jgv-41" target="Ejqd8a6HH2QFeDG4-jgv-5" edge="1">
          <mxGeometry relative="1" as="geometry" />
        </mxCell>
        <mxCell id="Ejqd8a6HH2QFeDG4-jgv-41" value="Start" style="rounded=1;whiteSpace=wrap;html=1;fontSize=12;glass=0;strokeWidth=1;shadow=0;" parent="WIyWlLk6GJQsqaUBKTNV-1" vertex="1">
          <mxGeometry x="500" y="50" width="120" height="40" as="geometry" />
        </mxCell>
        <mxCell id="Ejqd8a6HH2QFeDG4-jgv-43" value="End" style="rounded=1;whiteSpace=wrap;html=1;fontSize=12;glass=0;strokeWidth=1;shadow=0;" parent="WIyWlLk6GJQsqaUBKTNV-1" vertex="1">
          <mxGeometry x="540" y="1740" width="120" height="40" as="geometry" />
        </mxCell>
        <mxCell id="Ejqd8a6HH2QFeDG4-jgv-60" style="edgeStyle=orthogonalEdgeStyle;rounded=0;orthogonalLoop=1;jettySize=auto;html=1;entryX=1;entryY=0.5;entryDx=0;entryDy=0;" parent="WIyWlLk6GJQsqaUBKTNV-1" target="Ejqd8a6HH2QFeDG4-jgv-56" edge="1">
          <mxGeometry relative="1" as="geometry">
            <mxPoint x="1040" y="550" as="targetPoint" />
            <mxPoint x="1080" y="550" as="sourcePoint" />
            <Array as="points" />
          </mxGeometry>
        </mxCell>
        <mxCell id="Ejqd8a6HH2QFeDG4-jgv-67" style="edgeStyle=orthogonalEdgeStyle;rounded=0;orthogonalLoop=1;jettySize=auto;html=1;exitX=0.5;exitY=1;exitDx=0;exitDy=0;" parent="WIyWlLk6GJQsqaUBKTNV-1" source="Ejqd8a6HH2QFeDG4-jgv-50" target="Ejqd8a6HH2QFeDG4-jgv-52" edge="1">
          <mxGeometry relative="1" as="geometry" />
        </mxCell>
        <mxCell id="Ejqd8a6HH2QFeDG4-jgv-68" style="edgeStyle=orthogonalEdgeStyle;rounded=0;orthogonalLoop=1;jettySize=auto;html=1;exitX=0;exitY=0.5;exitDx=0;exitDy=0;entryX=0.5;entryY=0;entryDx=0;entryDy=0;" parent="WIyWlLk6GJQsqaUBKTNV-1" source="Ejqd8a6HH2QFeDG4-jgv-50" target="Ejqd8a6HH2QFeDG4-jgv-58" edge="1">
          <mxGeometry relative="1" as="geometry" />
        </mxCell>
        <mxCell id="Ejqd8a6HH2QFeDG4-jgv-50" value="Add product to Cart" style="ellipse;whiteSpace=wrap;html=1;" parent="WIyWlLk6GJQsqaUBKTNV-1" vertex="1">
          <mxGeometry x="920" y="930" width="120" height="80" as="geometry" />
        </mxCell>
        <mxCell id="Ejqd8a6HH2QFeDG4-jgv-52" value="Cancel Order" style="ellipse;whiteSpace=wrap;html=1;" parent="WIyWlLk6GJQsqaUBKTNV-1" vertex="1">
          <mxGeometry x="920" y="1050" width="120" height="80" as="geometry" />
        </mxCell>
        <mxCell id="Ejqd8a6HH2QFeDG4-jgv-56" value="View Profile" style="ellipse;whiteSpace=wrap;html=1;" parent="WIyWlLk6GJQsqaUBKTNV-1" vertex="1">
          <mxGeometry x="560" y="510" width="120" height="80" as="geometry" />
        </mxCell>
        <mxCell id="Ejqd8a6HH2QFeDG4-jgv-57" value="View Products" style="ellipse;whiteSpace=wrap;html=1;" parent="WIyWlLk6GJQsqaUBKTNV-1" vertex="1">
          <mxGeometry x="560" y="630" width="120" height="80" as="geometry" />
        </mxCell>
        <mxCell id="Ejqd8a6HH2QFeDG4-jgv-71" style="edgeStyle=orthogonalEdgeStyle;rounded=0;orthogonalLoop=1;jettySize=auto;html=1;exitX=0.5;exitY=1;exitDx=0;exitDy=0;entryX=0.5;entryY=0;entryDx=0;entryDy=0;" parent="WIyWlLk6GJQsqaUBKTNV-1" source="Ejqd8a6HH2QFeDG4-jgv-58" target="Ejqd8a6HH2QFeDG4-jgv-69" edge="1">
          <mxGeometry relative="1" as="geometry" />
        </mxCell>
        <mxCell id="Ejqd8a6HH2QFeDG4-jgv-58" value="Place Order" style="ellipse;whiteSpace=wrap;html=1;" parent="WIyWlLk6GJQsqaUBKTNV-1" vertex="1">
          <mxGeometry x="740" y="1050" width="120" height="80" as="geometry" />
        </mxCell>
        <mxCell id="Ejqd8a6HH2QFeDG4-jgv-62" style="edgeStyle=orthogonalEdgeStyle;rounded=0;orthogonalLoop=1;jettySize=auto;html=1;entryX=1;entryY=0.5;entryDx=0;entryDy=0;" parent="WIyWlLk6GJQsqaUBKTNV-1" edge="1">
          <mxGeometry relative="1" as="geometry">
            <mxPoint x="1040" y="969.9" as="targetPoint" />
            <mxPoint x="1080" y="969.9" as="sourcePoint" />
            <Array as="points">
              <mxPoint x="1060" y="969.9" />
              <mxPoint x="1060" y="969.9" />
            </Array>
          </mxGeometry>
        </mxCell>
        <mxCell id="Ejqd8a6HH2QFeDG4-jgv-65" style="edgeStyle=orthogonalEdgeStyle;rounded=0;orthogonalLoop=1;jettySize=auto;html=1;entryX=0;entryY=0.5;entryDx=0;entryDy=0;" parent="WIyWlLk6GJQsqaUBKTNV-1" target="Ejqd8a6HH2QFeDG4-jgv-56" edge="1">
          <mxGeometry relative="1" as="geometry">
            <mxPoint x="205" y="600" as="targetPoint" />
            <mxPoint x="170" y="550" as="sourcePoint" />
            <Array as="points">
              <mxPoint x="200" y="550" />
              <mxPoint x="200" y="550" />
            </Array>
          </mxGeometry>
        </mxCell>
        <mxCell id="Ejqd8a6HH2QFeDG4-jgv-66" style="edgeStyle=orthogonalEdgeStyle;rounded=0;orthogonalLoop=1;jettySize=auto;html=1;entryX=0;entryY=0.5;entryDx=0;entryDy=0;" parent="WIyWlLk6GJQsqaUBKTNV-1" target="Ejqd8a6HH2QFeDG4-jgv-57" edge="1">
          <mxGeometry relative="1" as="geometry">
            <mxPoint x="230" y="669.4000000000001" as="targetPoint" />
            <mxPoint x="170" y="669.4000000000001" as="sourcePoint" />
            <Array as="points">
              <mxPoint x="200" y="669" />
            </Array>
          </mxGeometry>
        </mxCell>
        <mxCell id="Ejqd8a6HH2QFeDG4-jgv-74" style="edgeStyle=orthogonalEdgeStyle;rounded=0;orthogonalLoop=1;jettySize=auto;html=1;exitX=0.5;exitY=1;exitDx=0;exitDy=0;" parent="WIyWlLk6GJQsqaUBKTNV-1" source="Ejqd8a6HH2QFeDG4-jgv-69" target="Ejqd8a6HH2QFeDG4-jgv-73" edge="1">
          <mxGeometry relative="1" as="geometry" />
        </mxCell>
        <mxCell id="Ejqd8a6HH2QFeDG4-jgv-69" value="Add/Confirm Address" style="ellipse;whiteSpace=wrap;html=1;" parent="WIyWlLk6GJQsqaUBKTNV-1" vertex="1">
          <mxGeometry x="740" y="1200" width="120" height="80" as="geometry" />
        </mxCell>
        <mxCell id="Ejqd8a6HH2QFeDG4-jgv-75" style="edgeStyle=orthogonalEdgeStyle;rounded=0;orthogonalLoop=1;jettySize=auto;html=1;exitX=1;exitY=0.5;exitDx=0;exitDy=0;entryX=1;entryY=0.5;entryDx=0;entryDy=0;" parent="WIyWlLk6GJQsqaUBKTNV-1" source="Ejqd8a6HH2QFeDG4-jgv-73" target="Ejqd8a6HH2QFeDG4-jgv-1" edge="1">
          <mxGeometry relative="1" as="geometry" />
        </mxCell>
        <mxCell id="Ejqd8a6HH2QFeDG4-jgv-73" value="Payment" style="ellipse;whiteSpace=wrap;html=1;" parent="WIyWlLk6GJQsqaUBKTNV-1" vertex="1">
          <mxGeometry x="740" y="1359" width="120" height="80" as="geometry" />
        </mxCell>
        <mxCell id="Ejqd8a6HH2QFeDG4-jgv-82" value="Edit My Products" style="ellipse;whiteSpace=wrap;html=1;" parent="WIyWlLk6GJQsqaUBKTNV-1" vertex="1">
          <mxGeometry x="230" y="1180" width="120" height="80" as="geometry" />
        </mxCell>
        <mxCell id="Ejqd8a6HH2QFeDG4-jgv-83" style="edgeStyle=orthogonalEdgeStyle;rounded=0;orthogonalLoop=1;jettySize=auto;html=1;entryX=0;entryY=0.5;entryDx=0;entryDy=0;" parent="WIyWlLk6GJQsqaUBKTNV-1" edge="1">
          <mxGeometry relative="1" as="geometry">
            <mxPoint x="230" y="1219.44" as="targetPoint" />
            <mxPoint x="170" y="1219.44" as="sourcePoint" />
            <Array as="points">
              <mxPoint x="200" y="1219.44" />
              <mxPoint x="200" y="1219.44" />
            </Array>
          </mxGeometry>
        </mxCell>
        <mxCell id="Ejqd8a6HH2QFeDG4-jgv-84" value="Add new Products" style="ellipse;whiteSpace=wrap;html=1;" parent="WIyWlLk6GJQsqaUBKTNV-1" vertex="1">
          <mxGeometry x="230" y="1060" width="120" height="80" as="geometry" />
        </mxCell>
        <mxCell id="Ejqd8a6HH2QFeDG4-jgv-85" style="edgeStyle=orthogonalEdgeStyle;rounded=0;orthogonalLoop=1;jettySize=auto;html=1;entryX=0;entryY=0.5;entryDx=0;entryDy=0;" parent="WIyWlLk6GJQsqaUBKTNV-1" edge="1">
          <mxGeometry relative="1" as="geometry">
            <mxPoint x="230" y="1099.44" as="targetPoint" />
            <mxPoint x="170" y="1099.44" as="sourcePoint" />
            <Array as="points">
              <mxPoint x="200" y="1099.44" />
              <mxPoint x="200" y="1099.44" />
            </Array>
          </mxGeometry>
        </mxCell>
        <mxCell id="E9m1sffLnyDPW0dIYpkh-4" value="View orders" style="ellipse;whiteSpace=wrap;html=1;" parent="WIyWlLk6GJQsqaUBKTNV-1" vertex="1">
          <mxGeometry x="560" y="760" width="120" height="80" as="geometry" />
        </mxCell>
        <mxCell id="E9m1sffLnyDPW0dIYpkh-6" style="edgeStyle=orthogonalEdgeStyle;rounded=0;orthogonalLoop=1;jettySize=auto;html=1;entryX=1;entryY=0.5;entryDx=0;entryDy=0;" parent="WIyWlLk6GJQsqaUBKTNV-1" edge="1">
          <mxGeometry relative="1" as="geometry">
            <mxPoint x="680" y="669.76" as="targetPoint" />
            <mxPoint x="1080" y="669.76" as="sourcePoint" />
            <Array as="points" />
          </mxGeometry>
        </mxCell>
        <mxCell id="E9m1sffLnyDPW0dIYpkh-7" style="edgeStyle=orthogonalEdgeStyle;rounded=0;orthogonalLoop=1;jettySize=auto;html=1;entryX=1;entryY=0.5;entryDx=0;entryDy=0;" parent="WIyWlLk6GJQsqaUBKTNV-1" edge="1">
          <mxGeometry relative="1" as="geometry">
            <mxPoint x="680" y="799.76" as="targetPoint" />
            <mxPoint x="1080" y="799.76" as="sourcePoint" />
            <Array as="points" />
          </mxGeometry>
        </mxCell>
        <mxCell id="E9m1sffLnyDPW0dIYpkh-8" style="edgeStyle=orthogonalEdgeStyle;rounded=0;orthogonalLoop=1;jettySize=auto;html=1;entryX=0;entryY=0.5;entryDx=0;entryDy=0;" parent="WIyWlLk6GJQsqaUBKTNV-1" edge="1">
          <mxGeometry relative="1" as="geometry">
            <mxPoint x="560" y="800.31" as="targetPoint" />
            <mxPoint x="170" y="799.71" as="sourcePoint" />
            <Array as="points">
              <mxPoint x="200" y="799.31" />
            </Array>
          </mxGeometry>
        </mxCell>
        <mxCell id="JHfphuep1LgaMMerygus-5" value="View&amp;nbsp;&lt;span style=&quot;background-color: initial;&quot;&gt;Wishlist&lt;/span&gt;" style="ellipse;whiteSpace=wrap;html=1;" vertex="1" parent="WIyWlLk6GJQsqaUBKTNV-1">
          <mxGeometry x="920" y="1530" width="120" height="80" as="geometry" />
        </mxCell>
        <mxCell id="JHfphuep1LgaMMerygus-6" style="edgeStyle=orthogonalEdgeStyle;rounded=0;orthogonalLoop=1;jettySize=auto;html=1;entryX=1;entryY=0.5;entryDx=0;entryDy=0;" edge="1" parent="WIyWlLk6GJQsqaUBKTNV-1">
          <mxGeometry relative="1" as="geometry">
            <mxPoint x="1040" y="1569.76" as="targetPoint" />
            <mxPoint x="1080" y="1570" as="sourcePoint" />
            <Array as="points">
              <mxPoint x="1060" y="1570" />
            </Array>
          </mxGeometry>
        </mxCell>
        <mxCell id="JHfphuep1LgaMMerygus-7" value="Add to Wishlist" style="ellipse;whiteSpace=wrap;html=1;" vertex="1" parent="WIyWlLk6GJQsqaUBKTNV-1">
          <mxGeometry x="920" y="1430" width="120" height="80" as="geometry" />
        </mxCell>
        <mxCell id="JHfphuep1LgaMMerygus-8" style="edgeStyle=orthogonalEdgeStyle;rounded=0;orthogonalLoop=1;jettySize=auto;html=1;entryX=1;entryY=0.5;entryDx=0;entryDy=0;" edge="1" parent="WIyWlLk6GJQsqaUBKTNV-1">
          <mxGeometry relative="1" as="geometry">
            <mxPoint x="1040" y="1469.76" as="targetPoint" />
            <mxPoint x="1080" y="1470" as="sourcePoint" />
            <Array as="points">
              <mxPoint x="1060" y="1470" />
            </Array>
          </mxGeometry>
        </mxCell>
      </root>
    </mxGraphModel>
  </diagram>
</mxfile>
